<?xml version="1.0" standalone="no"?>
<!DOCTYPE svg PUBLIC "-//W3C//DTD SVG 20010904//EN"
 "http://www.w3.org/TR/2001/REC-SVG-20010904/DTD/svg10.dtd">
<svg version="1.0" xmlns="http://www.w3.org/2000/svg"
 width="1004.000000pt" height="590.000000pt" viewBox="0 0 1004.000000 590.000000"
 preserveAspectRatio="xMidYMid meet">

<g transform="translate(0.000000,590.000000) scale(0.100000,-0.100000)"
fill="#000000" stroke="none">
<path fill="red" d="M0 2950 l0 -2950 5015 0 5015 0 0 2950 0 2950 -5015 0 -5015 0 0
-2950z m5246 848 c-3 -79 -7 -174 -8 -213 l-1 -70 109 -2 109 -1 0 -309 0
-308 -118 -3 -118 -3 3 -82 3 -82 115 -5 115 -5 3 -228 2 -227 -27 -11 c-68
-26 -158 -40 -290 -46 -209 -9 -309 16 -398 98 -99 92 -125 178 -125 427 l0
163 -65 29 -65 29 2 282 3 283 63 -3 62 -2 0 195 0 196 43 1 c23 0 137 9 252
18 116 10 239 19 274 20 l64 1 -7 -142z m-4462 61 c3 -34 6 -119 6 -188 0 -69
3 -169 6 -221 l7 -96 53 52 c97 95 238 143 384 131 184 -15 305 -124 357 -319
14 -53 17 -137 20 -540 l4 -478 -315 0 -315 0 -3 316 -3 316 -24 19 c-36 29
-84 25 -114 -10 l-25 -30 6 -305 5 -306 -322 0 -322 0 6 153 c5 121 45 1505
45 1555 0 9 60 12 269 12 l268 0 7 -61z m6781 49 c2 -7 13 -353 24 -768 12
-415 23 -797 26 -847 l5 -93 -319 0 c-176 0 -321 3 -323 8 -5 9 42 1683 47
1700 3 9 66 12 270 12 204 0 267 -3 270 -12z m745 10 c2 -12 50 -1599 50
-1650 l0 -68 -321 0 -322 0 7 168 c3 92 13 415 21 717 8 303 17 614 21 693 l6
142 269 0 c148 0 269 -1 269 -2z m-5697 -387 c118 -31 210 -84 297 -171 125
-125 178 -254 187 -451 9 -193 -25 -331 -113 -461 l-54 -79 210 -251 c181
-218 210 -256 210 -285 0 -68 -87 -110 -138 -65 -14 12 -387 459 -417 500 -1
1 -28 -9 -60 -23 -101 -45 -177 -58 -335 -58 -117 0 -160 4 -225 21 -220 60
-348 184 -417 402 -20 67 -23 94 -23 255 0 200 13 266 78 390 37 69 131 168
197 206 158 92 406 121 603 70z m1407 8 c86 -13 261 -56 305 -75 l35 -14 0
-265 c0 -176 -3 -265 -10 -265 -6 0 -26 6 -45 14 -56 24 -185 46 -285 48 -89
3 -95 2 -95 -17 0 -18 12 -22 107 -37 191 -32 277 -78 325 -176 25 -51 28 -67
28 -162 0 -93 -3 -112 -26 -161 -78 -165 -252 -239 -569 -239 -176 0 -274 14
-440 62 l-115 33 -3 233 c-1 127 -1 232 2 232 2 0 21 -6 43 -14 90 -32 355
-72 389 -59 8 3 14 13 14 24 0 13 -10 19 -37 23 -74 11 -208 46 -248 66 -66
32 -122 86 -152 147 -23 48 -28 73 -31 154 -9 204 72 329 263 408 137 58 342
73 545 40z m5322 -4 c233 -60 391 -207 465 -430 25 -73 27 -94 28 -240 0 -140
-3 -169 -23 -235 -69 -220 -221 -364 -452 -427 -97 -26 -338 -23 -441 5 -223
60 -353 185 -421 402 -20 67 -23 94 -23 255 0 161 3 188 23 255 78 250 244
384 530 430 78 12 237 4 314 -15z m-2862 -18 c199 -66 306 -182 361 -392 16
-63 21 -113 22 -235 l2 -155 -358 0 c-379 0 -372 1 -346 -47 20 -38 85 -58
191 -58 93 0 260 25 321 49 59 23 58 28 55 -176 l-3 -186 -75 -38 c-116 -57
-175 -70 -355 -76 -136 -4 -174 -2 -257 16 -242 51 -391 193 -455 431 -25 93
-25 369 0 460 59 217 200 353 423 410 68 17 104 19 254 16 120 -3 189 -8 220
-19z"/>
<path d="M2312 3364 c-143 -38 -288 -156 -351 -287 -48 -100 -67 -204 -52
-291 53 -313 407 -494 695 -356 181 86 287 252 287 450 0 201 -107 369 -286
450 -109 50 -198 60 -293 34z"/>
<path d="M9068 2831 c-30 -27 -33 -34 -32 -87 0 -51 3 -60 32 -85 27 -24 41
-29 86 -29 66 0 112 32 122 85 15 83 -40 145 -128 145 -39 0 -54 -6 -80 -29z"/>
<path d="M6179 2971 c-17 -17 -29 -40 -29 -55 l0 -26 105 0 c66 0 105 4 105
10 0 24 -30 79 -48 89 -12 6 -39 11 -62 11 -33 0 -48 -6 -71 -29z"/>
</g>
</svg>
